<mxfile host="app.diagrams.net" modified="2023-11-22T11:47:54.877Z" agent="Mozilla/5.0 (Windows NT 10.0; Win64; x64) AppleWebKit/537.36 (KHTML, like Gecko) Chrome/119.0.0.0 Safari/537.36" etag="48dNWiJdDEunkryI0k2h" version="22.1.3" type="github">
  <diagram name="Page-1" id="dNd-VY3hCrxKtzNdqKvh">
    <mxGraphModel dx="1050" dy="542" grid="0" gridSize="10" guides="1" tooltips="1" connect="1" arrows="1" fold="1" page="1" pageScale="1" pageWidth="827" pageHeight="1169" math="0" shadow="0">
      <root>
        <mxCell id="0" />
        <mxCell id="1" parent="0" />
        <mxCell id="frwbLj5RQpLvQ6Vtcblh-8" style="edgeStyle=orthogonalEdgeStyle;rounded=0;orthogonalLoop=1;jettySize=auto;html=1;exitX=0.5;exitY=1;exitDx=0;exitDy=0;entryX=0.5;entryY=0;entryDx=0;entryDy=0;" edge="1" parent="1" source="frwbLj5RQpLvQ6Vtcblh-1" target="frwbLj5RQpLvQ6Vtcblh-2">
          <mxGeometry relative="1" as="geometry">
            <Array as="points">
              <mxPoint x="400" y="130" />
              <mxPoint x="311" y="130" />
            </Array>
          </mxGeometry>
        </mxCell>
        <mxCell id="frwbLj5RQpLvQ6Vtcblh-9" style="edgeStyle=orthogonalEdgeStyle;rounded=0;orthogonalLoop=1;jettySize=auto;html=1;exitX=0.5;exitY=1;exitDx=0;exitDy=0;entryX=0.5;entryY=0;entryDx=0;entryDy=0;" edge="1" parent="1" source="frwbLj5RQpLvQ6Vtcblh-1" target="frwbLj5RQpLvQ6Vtcblh-3">
          <mxGeometry relative="1" as="geometry">
            <Array as="points">
              <mxPoint x="400" y="130" />
              <mxPoint x="491" y="130" />
            </Array>
          </mxGeometry>
        </mxCell>
        <mxCell id="frwbLj5RQpLvQ6Vtcblh-1" value="手写签名验真算法" style="rounded=1;whiteSpace=wrap;html=1;fillColor=#dae8fc;strokeColor=#6c8ebf;" vertex="1" parent="1">
          <mxGeometry x="340" y="50" width="120" height="60" as="geometry" />
        </mxCell>
        <mxCell id="frwbLj5RQpLvQ6Vtcblh-10" style="edgeStyle=orthogonalEdgeStyle;rounded=0;orthogonalLoop=1;jettySize=auto;html=1;exitX=0.5;exitY=1;exitDx=0;exitDy=0;entryX=0.5;entryY=0;entryDx=0;entryDy=0;" edge="1" parent="1" source="frwbLj5RQpLvQ6Vtcblh-2" target="frwbLj5RQpLvQ6Vtcblh-5">
          <mxGeometry relative="1" as="geometry" />
        </mxCell>
        <mxCell id="frwbLj5RQpLvQ6Vtcblh-11" style="edgeStyle=orthogonalEdgeStyle;rounded=0;orthogonalLoop=1;jettySize=auto;html=1;exitX=0.5;exitY=1;exitDx=0;exitDy=0;entryX=0.5;entryY=0;entryDx=0;entryDy=0;" edge="1" parent="1" source="frwbLj5RQpLvQ6Vtcblh-2" target="frwbLj5RQpLvQ6Vtcblh-6">
          <mxGeometry relative="1" as="geometry" />
        </mxCell>
        <mxCell id="frwbLj5RQpLvQ6Vtcblh-2" value="&lt;font style=&quot;font-size: 14px;&quot;&gt;离线验真&lt;/font&gt;" style="rounded=1;whiteSpace=wrap;html=1;fillColor=#dae8fc;strokeColor=#6c8ebf;" vertex="1" parent="1">
          <mxGeometry x="251" y="149" width="120" height="60" as="geometry" />
        </mxCell>
        <mxCell id="frwbLj5RQpLvQ6Vtcblh-3" value="&lt;font style=&quot;font-size: 14px;&quot;&gt;在线验真&lt;/font&gt;" style="rounded=1;whiteSpace=wrap;html=1;fillColor=#dae8fc;strokeColor=#6c8ebf;" vertex="1" parent="1">
          <mxGeometry x="431" y="149" width="120" height="60" as="geometry" />
        </mxCell>
        <mxCell id="frwbLj5RQpLvQ6Vtcblh-5" value="&lt;font style=&quot;font-size: 14px;&quot;&gt;作者独立&lt;/font&gt;" style="rounded=1;whiteSpace=wrap;html=1;fillColor=#dae8fc;strokeColor=#6c8ebf;" vertex="1" parent="1">
          <mxGeometry x="171" y="251" width="120" height="60" as="geometry" />
        </mxCell>
        <mxCell id="frwbLj5RQpLvQ6Vtcblh-6" value="&lt;font style=&quot;font-size: 14px;&quot;&gt;依赖于作者&lt;/font&gt;" style="rounded=1;whiteSpace=wrap;html=1;fillColor=#dae8fc;strokeColor=#6c8ebf;" vertex="1" parent="1">
          <mxGeometry x="331" y="251" width="120" height="60" as="geometry" />
        </mxCell>
      </root>
    </mxGraphModel>
  </diagram>
</mxfile>
